ISO-10303-21;
HEADER;
FILE_DESCRIPTION(('Open CASCADE Model'),'2;1');
FILE_NAME('Open CASCADE Shape Model','2026-07-04T12:56:22',('Author'),(
    'Open CASCADE'),'Open CASCADE STEP processor 7.4','Open CASCADE 7.4'
  ,'Unknown');
FILE_SCHEMA(('AUTOMOTIVE_DESIGN { 1 0 10303 214 1 1 1 1 }'));
ENDSEC;
DATA;
#1 = APPLICATION_PROTOCOL_DEFINITION('international standard',
  'automotive_design',2000,#2);
#2 = APPLICATION_CONTEXT(
  'core data for automotive mechanical design processes');
#3 = SHAPE_DEFINITION_REPRESENTATION(#4,#10);
#4 = PRODUCT_DEFINITION_SHAPE('','',#5);
#5 = PRODUCT_DEFINITION('design','',#6,#9);
#6 = PRODUCT_DEFINITION_FORMATION('','',#7);
#7 = PRODUCT('Open CASCADE STEP translator 7.4 1',
  'Open CASCADE STEP translator 7.4 1','',(#8));
#8 = PRODUCT_CONTEXT('',#2,'mechanical');
#9 = PRODUCT_DEFINITION_CONTEXT('part definition',#2,'design');
#10 = ADVANCED_BREP_SHAPE_REPRESENTATION('',(#11,#15),#663);
#11 = AXIS2_PLACEMENT_3D('',#12,#13,#14);
#12 = CARTESIAN_POINT('',(0.,0.,0.));
#13 = DIRECTION('',(0.,0.,1.));
#14 = DIRECTION('',(1.,0.,-0.));
#15 = MANIFOLD_SOLID_BREP('',#16);
#16 = CLOSED_SHELL('',(#17,#171,#377,#472,#567,#629,#636));
#17 = ADVANCED_FACE('',(#18),#33,.T.);
#18 = FACE_BOUND('',#19,.F.);
#19 = EDGE_LOOP('',(#20,#60,#100,#133));
#20 = ORIENTED_EDGE('',*,*,#21,.F.);
#21 = EDGE_CURVE('',#22,#24,#26,.T.);
#22 = VERTEX_POINT('',#23);
#23 = CARTESIAN_POINT('',(2.204792817434,-1.475274621357,0.));
#24 = VERTEX_POINT('',#25);
#25 = CARTESIAN_POINT('',(2.204792817434,16.475274621357,0.));
#26 = SURFACE_CURVE('',#27,(#32,#44),.PCURVE_S1.);
#27 = CIRCLE('',#28,10.);
#28 = AXIS2_PLACEMENT_3D('',#29,#30,#31);
#29 = CARTESIAN_POINT('',(6.614378452301,7.5,0.));
#30 = DIRECTION('',(0.,0.,1.));
#31 = DIRECTION('',(1.,0.,-0.));
#32 = PCURVE('',#33,#38);
#33 = CYLINDRICAL_SURFACE('',#34,10.);
#34 = AXIS2_PLACEMENT_3D('',#35,#36,#37);
#35 = CARTESIAN_POINT('',(6.614378452301,7.5,0.));
#36 = DIRECTION('',(-0.,-0.,-1.));
#37 = DIRECTION('',(1.,0.,-0.));
#38 = DEFINITIONAL_REPRESENTATION('',(#39),#43);
#39 = LINE('',#40,#41);
#40 = CARTESIAN_POINT('',(-0.,0.));
#41 = VECTOR('',#42,1.);
#42 = DIRECTION('',(-1.,0.));
#43 = ( GEOMETRIC_REPRESENTATION_CONTEXT(2) 
PARAMETRIC_REPRESENTATION_CONTEXT() REPRESENTATION_CONTEXT('2D SPACE',''
  ) );
#44 = PCURVE('',#45,#50);
#45 = PLANE('',#46);
#46 = AXIS2_PLACEMENT_3D('',#47,#48,#49);
#47 = CARTESIAN_POINT('',(7.144778493935,7.500000000035,0.));
#48 = DIRECTION('',(-0.,-0.,-1.));
#49 = DIRECTION('',(-1.,0.,0.));
#50 = DEFINITIONAL_REPRESENTATION('',(#51),#59);
#51 = ( BOUNDED_CURVE() B_SPLINE_CURVE(2,(#52,#53,#54,#55,#56,#57,#58),
.UNSPECIFIED.,.T.,.F.) B_SPLINE_CURVE_WITH_KNOTS((1,2,2,2,2,1),(
    -2.094395102393,0.,2.094395102393,4.188790204786,6.28318530718,
8.377580409573),.UNSPECIFIED.) CURVE() GEOMETRIC_REPRESENTATION_ITEM() 
RATIONAL_B_SPLINE_CURVE((1.,0.5,1.,0.5,1.,0.5,1.)) REPRESENTATION_ITEM(
  '') );
#52 = CARTESIAN_POINT('',(-9.469599958366,-3.499422973618E-11));
#53 = CARTESIAN_POINT('',(-9.469599958366,17.320508075654));
#54 = CARTESIAN_POINT('',(5.530400041634,8.660254037809));
#55 = CARTESIAN_POINT('',(20.530400041634,-3.499178044259E-11));
#56 = CARTESIAN_POINT('',(5.530400041634,-8.660254037879));
#57 = CARTESIAN_POINT('',(-9.469599958366,-17.32050807572));
#58 = CARTESIAN_POINT('',(-9.469599958366,-3.499422973618E-11));
#59 = ( GEOMETRIC_REPRESENTATION_CONTEXT(2) 
PARAMETRIC_REPRESENTATION_CONTEXT() REPRESENTATION_CONTEXT('2D SPACE',''
  ) );
#60 = ORIENTED_EDGE('',*,*,#61,.T.);
#61 = EDGE_CURVE('',#22,#62,#64,.T.);
#62 = VERTEX_POINT('',#63);
#63 = CARTESIAN_POINT('',(2.204792817434,-1.475274621357,10.));
#64 = SURFACE_CURVE('',#65,(#71,#77),.PCURVE_S1.);
#65 = B_SPLINE_CURVE_WITH_KNOTS('',2,(#66,#67,#68,#69,#70),
  .UNSPECIFIED.,.F.,.F.,(3,1,1,3),(-0.612,-3.12150479076E-14,10.,10.612)
  ,.UNSPECIFIED.);
#66 = CARTESIAN_POINT('',(2.204792817434,-1.475274621357,-0.612));
#67 = CARTESIAN_POINT('',(2.204792817434,-1.475274621357,-0.306));
#68 = CARTESIAN_POINT('',(2.204792817434,-1.475274621357,5.));
#69 = CARTESIAN_POINT('',(2.204792817434,-1.475274621357,10.306));
#70 = CARTESIAN_POINT('',(2.204792817434,-1.475274621357,10.612));
#71 = PCURVE('',#33,#72);
#72 = DEFINITIONAL_REPRESENTATION('',(#73),#76);
#73 = B_SPLINE_CURVE_WITH_KNOTS('',1,(#74,#75),.UNSPECIFIED.,.F.,.F.,(2,
    2),(-3.12150479076E-14,10.),.PIECEWISE_BEZIER_KNOTS.);
#74 = CARTESIAN_POINT('',(-4.255722582206,0.));
#75 = CARTESIAN_POINT('',(-4.255722582206,-10.));
#76 = ( GEOMETRIC_REPRESENTATION_CONTEXT(2) 
PARAMETRIC_REPRESENTATION_CONTEXT() REPRESENTATION_CONTEXT('2D SPACE',''
  ) );
#77 = PCURVE('',#78,#94);
#78 = ( BOUNDED_SURFACE() B_SPLINE_SURFACE(2,2,(
    (#79,#80,#81,#82,#83)
    ,(#84,#85,#86,#87,#88)
    ,(#89,#90,#91,#92,#93
)),.UNSPECIFIED.,.F.,.F.,.F.) B_SPLINE_SURFACE_WITH_KNOTS((3,3),(3,1,1,3
    ),(0.,10.),(-0.612,-3.12150479076E-14,10.,10.612),.UNSPECIFIED.) 
GEOMETRIC_REPRESENTATION_ITEM() RATIONAL_B_SPLINE_SURFACE((
    (1.,1.,1.,1.,1.)
    ,(0.897527462136,0.897527462136,0.897527462136,0.897527462136
      ,0.897527462136)
,(1.,1.,1.,1.,1.))) REPRESENTATION_ITEM('') SURFACE() );
#79 = CARTESIAN_POINT('',(2.204792817434,-1.475274621357,-0.612));
#80 = CARTESIAN_POINT('',(2.204792817434,-1.475274621357,-0.306));
#81 = CARTESIAN_POINT('',(2.204792817434,-1.475274621357,5.));
#82 = CARTESIAN_POINT('',(2.204792817434,-1.475274621357,10.306));
#83 = CARTESIAN_POINT('',(2.204792817434,-1.475274621357,10.612));
#84 = CARTESIAN_POINT('',(1.577282323858E-15,-0.39205175122,-0.612));
#85 = CARTESIAN_POINT('',(1.577282323858E-15,-0.39205175122,-0.306));
#86 = CARTESIAN_POINT('',(1.577282323858E-15,-0.39205175122,5.));
#87 = CARTESIAN_POINT('',(1.577282323858E-15,-0.39205175122,10.306));
#88 = CARTESIAN_POINT('',(1.577282323858E-15,-0.39205175122,10.612));
#89 = CARTESIAN_POINT('',(-2.204792817434,-1.475274621357,-0.612));
#90 = CARTESIAN_POINT('',(-2.204792817434,-1.475274621357,-0.306));
#91 = CARTESIAN_POINT('',(-2.204792817434,-1.475274621357,5.));
#92 = CARTESIAN_POINT('',(-2.204792817434,-1.475274621357,10.306));
#93 = CARTESIAN_POINT('',(-2.204792817434,-1.475274621357,10.612));
#94 = DEFINITIONAL_REPRESENTATION('',(#95),#99);
#95 = LINE('',#96,#97);
#96 = CARTESIAN_POINT('',(0.,0.));
#97 = VECTOR('',#98,1.);
#98 = DIRECTION('',(0.,1.));
#99 = ( GEOMETRIC_REPRESENTATION_CONTEXT(2) 
PARAMETRIC_REPRESENTATION_CONTEXT() REPRESENTATION_CONTEXT('2D SPACE',''
  ) );
#100 = ORIENTED_EDGE('',*,*,#101,.T.);
#101 = EDGE_CURVE('',#62,#102,#104,.T.);
#102 = VERTEX_POINT('',#103);
#103 = CARTESIAN_POINT('',(2.204792817434,16.475274621357,10.));
#104 = SURFACE_CURVE('',#105,(#110,#117),.PCURVE_S1.);
#105 = CIRCLE('',#106,10.);
#106 = AXIS2_PLACEMENT_3D('',#107,#108,#109);
#107 = CARTESIAN_POINT('',(6.614378452301,7.5,10.));
#108 = DIRECTION('',(0.,0.,1.));
#109 = DIRECTION('',(1.,0.,-0.));
#110 = PCURVE('',#33,#111);
#111 = DEFINITIONAL_REPRESENTATION('',(#112),#116);
#112 = LINE('',#113,#114);
#113 = CARTESIAN_POINT('',(-0.,-10.));
#114 = VECTOR('',#115,1.);
#115 = DIRECTION('',(-1.,0.));
#116 = ( GEOMETRIC_REPRESENTATION_CONTEXT(2) 
PARAMETRIC_REPRESENTATION_CONTEXT() REPRESENTATION_CONTEXT('2D SPACE',''
  ) );
#117 = PCURVE('',#118,#123);
#118 = PLANE('',#119);
#119 = AXIS2_PLACEMENT_3D('',#120,#121,#122);
#120 = CARTESIAN_POINT('',(7.144778493935,7.500000000035,10.));
#121 = DIRECTION('',(-0.,-0.,-1.));
#122 = DIRECTION('',(-1.,0.,0.));
#123 = DEFINITIONAL_REPRESENTATION('',(#124),#132);
#124 = ( BOUNDED_CURVE() B_SPLINE_CURVE(2,(#125,#126,#127,#128,#129,#130
,#131),.UNSPECIFIED.,.T.,.F.) B_SPLINE_CURVE_WITH_KNOTS((1,2,2,2,2,1),(
    -2.094395102393,0.,2.094395102393,4.188790204786,6.28318530718,
8.377580409573),.UNSPECIFIED.) CURVE() GEOMETRIC_REPRESENTATION_ITEM() 
RATIONAL_B_SPLINE_CURVE((1.,0.5,1.,0.5,1.,0.5,1.)) REPRESENTATION_ITEM(
  '') );
#125 = CARTESIAN_POINT('',(-9.469599958366,-3.499422973618E-11));
#126 = CARTESIAN_POINT('',(-9.469599958366,17.320508075654));
#127 = CARTESIAN_POINT('',(5.530400041634,8.660254037809));
#128 = CARTESIAN_POINT('',(20.530400041634,-3.499178044259E-11));
#129 = CARTESIAN_POINT('',(5.530400041634,-8.660254037879));
#130 = CARTESIAN_POINT('',(-9.469599958366,-17.32050807572));
#131 = CARTESIAN_POINT('',(-9.469599958366,-3.499422973618E-11));
#132 = ( GEOMETRIC_REPRESENTATION_CONTEXT(2) 
PARAMETRIC_REPRESENTATION_CONTEXT() REPRESENTATION_CONTEXT('2D SPACE',''
  ) );
#133 = ORIENTED_EDGE('',*,*,#134,.F.);
#134 = EDGE_CURVE('',#24,#102,#135,.T.);
#135 = SURFACE_CURVE('',#136,(#142,#148),.PCURVE_S1.);
#136 = B_SPLINE_CURVE_WITH_KNOTS('',2,(#137,#138,#139,#140,#141),
  .UNSPECIFIED.,.F.,.F.,(3,1,1,3),(-0.612,-3.183174210331E-14,10.,10.612
    ),.UNSPECIFIED.);
#137 = CARTESIAN_POINT('',(2.204792817434,16.475274621357,-0.612));
#138 = CARTESIAN_POINT('',(2.204792817434,16.475274621357,-0.306));
#139 = CARTESIAN_POINT('',(2.204792817434,16.475274621357,5.));
#140 = CARTESIAN_POINT('',(2.204792817434,16.475274621357,10.306));
#141 = CARTESIAN_POINT('',(2.204792817434,16.475274621357,10.612));
#142 = PCURVE('',#33,#143);
#143 = DEFINITIONAL_REPRESENTATION('',(#144),#147);
#144 = B_SPLINE_CURVE_WITH_KNOTS('',1,(#145,#146),.UNSPECIFIED.,.F.,.F.,
  (2,2),(-3.183174210331E-14,10.),.PIECEWISE_BEZIER_KNOTS.);
#145 = CARTESIAN_POINT('',(-8.310648032153,0.));
#146 = CARTESIAN_POINT('',(-8.310648032153,-10.));
#147 = ( GEOMETRIC_REPRESENTATION_CONTEXT(2) 
PARAMETRIC_REPRESENTATION_CONTEXT() REPRESENTATION_CONTEXT('2D SPACE',''
  ) );
#148 = PCURVE('',#149,#165);
#149 = ( BOUNDED_SURFACE() B_SPLINE_SURFACE(2,2,(
    (#150,#151,#152,#153,#154)
    ,(#155,#156,#157,#158,#159)
    ,(#160,#161,#162,#163,#164
)),.UNSPECIFIED.,.F.,.F.,.F.) B_SPLINE_SURFACE_WITH_KNOTS((3,3),(3,1,1,3
    ),(0.,10.),(-0.612,-3.183174210331E-14,10.,10.612),.UNSPECIFIED.) 
GEOMETRIC_REPRESENTATION_ITEM() RATIONAL_B_SPLINE_SURFACE((
    (1.,1.,1.,1.,1.)
    ,(0.897527462136,0.897527462136,0.897527462136,0.897527462136
      ,0.897527462136)
,(1.,1.,1.,1.,1.))) REPRESENTATION_ITEM('') SURFACE() );
#150 = CARTESIAN_POINT('',(2.204792817434,16.475274621357,-0.612));
#151 = CARTESIAN_POINT('',(2.204792817434,16.475274621357,-0.306));
#152 = CARTESIAN_POINT('',(2.204792817434,16.475274621357,5.));
#153 = CARTESIAN_POINT('',(2.204792817434,16.475274621357,10.306));
#154 = CARTESIAN_POINT('',(2.204792817434,16.475274621357,10.612));
#155 = CARTESIAN_POINT('',(-4.440892098501E-16,15.39205175122,-0.612));
#156 = CARTESIAN_POINT('',(-4.440892098501E-16,15.39205175122,-0.306));
#157 = CARTESIAN_POINT('',(-4.440892098501E-16,15.39205175122,5.));
#158 = CARTESIAN_POINT('',(-4.440892098501E-16,15.39205175122,10.306));
#159 = CARTESIAN_POINT('',(-4.440892098501E-16,15.39205175122,10.612));
#160 = CARTESIAN_POINT('',(-2.204792817434,16.475274621357,-0.612));
#161 = CARTESIAN_POINT('',(-2.204792817434,16.475274621357,-0.306));
#162 = CARTESIAN_POINT('',(-2.204792817434,16.475274621357,5.));
#163 = CARTESIAN_POINT('',(-2.204792817434,16.475274621357,10.306));
#164 = CARTESIAN_POINT('',(-2.204792817434,16.475274621357,10.612));
#165 = DEFINITIONAL_REPRESENTATION('',(#166),#170);
#166 = LINE('',#167,#168);
#167 = CARTESIAN_POINT('',(0.,0.));
#168 = VECTOR('',#169,1.);
#169 = DIRECTION('',(0.,1.));
#170 = ( GEOMETRIC_REPRESENTATION_CONTEXT(2) 
PARAMETRIC_REPRESENTATION_CONTEXT() REPRESENTATION_CONTEXT('2D SPACE',''
  ) );
#171 = ADVANCED_FACE('',(#172,#342),#45,.T.);
#172 = FACE_BOUND('',#173,.T.);
#173 = EDGE_LOOP('',(#174,#175,#243,#276));
#174 = ORIENTED_EDGE('',*,*,#21,.F.);
#175 = ORIENTED_EDGE('',*,*,#176,.T.);
#176 = EDGE_CURVE('',#22,#177,#179,.T.);
#177 = VERTEX_POINT('',#178);
#178 = CARTESIAN_POINT('',(-2.204792817434,-1.475274621357,0.));
#179 = SURFACE_CURVE('',#180,(#199,#221),.PCURVE_S1.);
#180 = B_SPLINE_CURVE_WITH_KNOTS('',5,(#181,#182,#183,#184,#185,#186,
    #187,#188,#189,#190,#191,#192,#193,#194,#195,#196,#197,#198),
  .UNSPECIFIED.,.F.,.F.,(6,4,4,4,6),(0.,0.249431396849,0.5,
    0.750568603151,1.),.UNSPECIFIED.);
#181 = CARTESIAN_POINT('',(2.204792817434,-1.475274621357,0.));
#182 = CARTESIAN_POINT('',(2.006191678888,-1.377701149231,0.));
#183 = CARTESIAN_POINT('',(1.800054342923,-1.290063189878,0.));
#184 = CARTESIAN_POINT('',(1.587268715192,-1.213385862208,0.));
#185 = CARTESIAN_POINT('',(1.368967631427,-1.148538794628,0.));
#186 = CARTESIAN_POINT('',(0.922920523452,-1.043465173233,0.));
#187 = CARTESIAN_POINT('',(0.695132991962,-1.003351422363,0.));
#188 = CARTESIAN_POINT('',(0.464405390944,-0.976391110163,0.));
#189 = CARTESIAN_POINT('',(0.232201842156,-0.962911932035,0.));
#190 = CARTESIAN_POINT('',(-0.232201842156,-0.962911932035,0.));
#191 = CARTESIAN_POINT('',(-0.464405390944,-0.976391110163,0.));
#192 = CARTESIAN_POINT('',(-0.695132991962,-1.003351422363,0.));
#193 = CARTESIAN_POINT('',(-0.922920523452,-1.043465173233,0.));
#194 = CARTESIAN_POINT('',(-1.368967631427,-1.148538794628,0.));
#195 = CARTESIAN_POINT('',(-1.587268715193,-1.213385862208,0.));
#196 = CARTESIAN_POINT('',(-1.800054342923,-1.290063189877,0.));
#197 = CARTESIAN_POINT('',(-2.006191678888,-1.377701149231,0.));
#198 = CARTESIAN_POINT('',(-2.204792817434,-1.475274621357,0.));
#199 = PCURVE('',#45,#200);
#200 = DEFINITIONAL_REPRESENTATION('',(#201),#220);
#201 = B_SPLINE_CURVE_WITH_KNOTS('',5,(#202,#203,#204,#205,#206,#207,
    #208,#209,#210,#211,#212,#213,#214,#215,#216,#217,#218,#219),
  .UNSPECIFIED.,.F.,.F.,(6,4,4,4,6),(0.,0.249431396849,0.5,
    0.750568603151,1.),.UNSPECIFIED.);
#202 = CARTESIAN_POINT('',(4.939985676501,-8.975274621392));
#203 = CARTESIAN_POINT('',(5.138586815047,-8.877701149266));
#204 = CARTESIAN_POINT('',(5.344724151011,-8.790063189913));
#205 = CARTESIAN_POINT('',(5.557509778742,-8.713385862243));
#206 = CARTESIAN_POINT('',(5.775810862508,-8.648538794663));
#207 = CARTESIAN_POINT('',(6.221857970483,-8.543465173268));
#208 = CARTESIAN_POINT('',(6.449645501972,-8.503351422398));
#209 = CARTESIAN_POINT('',(6.680373102991,-8.476391110197));
#210 = CARTESIAN_POINT('',(6.912576651778,-8.46291193207));
#211 = CARTESIAN_POINT('',(7.376980336091,-8.46291193207));
#212 = CARTESIAN_POINT('',(7.609183884879,-8.476391110198));
#213 = CARTESIAN_POINT('',(7.839911485897,-8.503351422398));
#214 = CARTESIAN_POINT('',(8.067699017387,-8.543465173268));
#215 = CARTESIAN_POINT('',(8.513746125361,-8.648538794663));
#216 = CARTESIAN_POINT('',(8.732047209127,-8.713385862243));
#217 = CARTESIAN_POINT('',(8.944832836858,-8.790063189912));
#218 = CARTESIAN_POINT('',(9.150970172823,-8.877701149266));
#219 = CARTESIAN_POINT('',(9.349571311368,-8.975274621392));
#220 = ( GEOMETRIC_REPRESENTATION_CONTEXT(2) 
PARAMETRIC_REPRESENTATION_CONTEXT() REPRESENTATION_CONTEXT('2D SPACE',''
  ) );
#221 = PCURVE('',#78,#222);
#222 = DEFINITIONAL_REPRESENTATION('',(#223),#242);
#223 = B_SPLINE_CURVE_WITH_KNOTS('',5,(#224,#225,#226,#227,#228,#229,
    #230,#231,#232,#233,#234,#235,#236,#237,#238,#239,#240,#241),
  .UNSPECIFIED.,.F.,.F.,(6,4,4,4,6),(0.,0.249431396849,0.5,
    0.750568603151,1.),.UNSPECIFIED.);
#224 = CARTESIAN_POINT('',(0.,-3.123651511061E-14));
#225 = CARTESIAN_POINT('',(0.501806409555,-3.147834302218E-14));
#226 = CARTESIAN_POINT('',(1.002566042973,-3.181063907438E-14));
#227 = CARTESIAN_POINT('',(1.502402871798,-3.187100575446E-14));
#228 = CARTESIAN_POINT('',(2.00149033017,-3.207766163179E-14));
#229 = CARTESIAN_POINT('',(3.000782472474,-3.233857151418E-14));
#230 = CARTESIAN_POINT('',(3.50098823178,-3.243684160348E-14));
#231 = CARTESIAN_POINT('',(4.00078844149,-3.250452493633E-14));
#232 = CARTESIAN_POINT('',(4.500395945635,-3.253680931775E-14));
#233 = CARTESIAN_POINT('',(5.499604054365,-3.253680931775E-14));
#234 = CARTESIAN_POINT('',(5.99921155851,-3.250215264229E-14));
#235 = CARTESIAN_POINT('',(6.49901176822,-3.243665444193E-14));
#236 = CARTESIAN_POINT('',(6.999217527526,-3.233577867974E-14));
#237 = CARTESIAN_POINT('',(7.99850966983,-3.207523761523E-14));
#238 = CARTESIAN_POINT('',(8.497597128203,-3.191344427805E-14));
#239 = CARTESIAN_POINT('',(8.997433957027,-3.172456415777E-14));
#240 = CARTESIAN_POINT('',(9.498193590446,-3.150609859779E-14));
#241 = CARTESIAN_POINT('',(10.,-3.126427068623E-14));
#242 = ( GEOMETRIC_REPRESENTATION_CONTEXT(2) 
PARAMETRIC_REPRESENTATION_CONTEXT() REPRESENTATION_CONTEXT('2D SPACE',''
  ) );
#243 = ORIENTED_EDGE('',*,*,#244,.F.);
#244 = EDGE_CURVE('',#245,#177,#247,.T.);
#245 = VERTEX_POINT('',#246);
#246 = CARTESIAN_POINT('',(-2.204792817434,16.475274621357,0.));
#247 = SURFACE_CURVE('',#248,(#253,#264),.PCURVE_S1.);
#248 = CIRCLE('',#249,10.);
#249 = AXIS2_PLACEMENT_3D('',#250,#251,#252);
#250 = CARTESIAN_POINT('',(-6.614378452301,7.5,0.));
#251 = DIRECTION('',(0.,0.,1.));
#252 = DIRECTION('',(1.,0.,-0.));
#253 = PCURVE('',#45,#254);
#254 = DEFINITIONAL_REPRESENTATION('',(#255),#263);
#255 = ( BOUNDED_CURVE() B_SPLINE_CURVE(2,(#256,#257,#258,#259,#260,#261
,#262),.UNSPECIFIED.,.T.,.F.) B_SPLINE_CURVE_WITH_KNOTS((1,2,2,2,2,1),(
    -2.094395102393,0.,2.094395102393,4.188790204786,6.28318530718,
8.377580409573),.UNSPECIFIED.) CURVE() GEOMETRIC_REPRESENTATION_ITEM() 
RATIONAL_B_SPLINE_CURVE((1.,0.5,1.,0.5,1.,0.5,1.)) REPRESENTATION_ITEM(
  '') );
#256 = CARTESIAN_POINT('',(3.759156946236,-3.499422973618E-11));
#257 = CARTESIAN_POINT('',(3.759156946236,17.320508075654));
#258 = CARTESIAN_POINT('',(18.759156946236,8.660254037809));
#259 = CARTESIAN_POINT('',(33.759156946236,-3.499178044259E-11));
#260 = CARTESIAN_POINT('',(18.759156946236,-8.660254037879));
#261 = CARTESIAN_POINT('',(3.759156946236,-17.32050807572));
#262 = CARTESIAN_POINT('',(3.759156946236,-3.499422973618E-11));
#263 = ( GEOMETRIC_REPRESENTATION_CONTEXT(2) 
PARAMETRIC_REPRESENTATION_CONTEXT() REPRESENTATION_CONTEXT('2D SPACE',''
  ) );
#264 = PCURVE('',#265,#270);
#265 = CYLINDRICAL_SURFACE('',#266,10.);
#266 = AXIS2_PLACEMENT_3D('',#267,#268,#269);
#267 = CARTESIAN_POINT('',(-6.614378452301,7.5,0.));
#268 = DIRECTION('',(-0.,-0.,-1.));
#269 = DIRECTION('',(1.,0.,-0.));
#270 = DEFINITIONAL_REPRESENTATION('',(#271),#275);
#271 = LINE('',#272,#273);
#272 = CARTESIAN_POINT('',(-0.,0.));
#273 = VECTOR('',#274,1.);
#274 = DIRECTION('',(-1.,0.));
#275 = ( GEOMETRIC_REPRESENTATION_CONTEXT(2) 
PARAMETRIC_REPRESENTATION_CONTEXT() REPRESENTATION_CONTEXT('2D SPACE',''
  ) );
#276 = ORIENTED_EDGE('',*,*,#277,.F.);
#277 = EDGE_CURVE('',#24,#245,#278,.T.);
#278 = SURFACE_CURVE('',#279,(#298,#320),.PCURVE_S1.);
#279 = B_SPLINE_CURVE_WITH_KNOTS('',5,(#280,#281,#282,#283,#284,#285,
    #286,#287,#288,#289,#290,#291,#292,#293,#294,#295,#296,#297),
  .UNSPECIFIED.,.F.,.F.,(6,4,4,4,6),(0.,0.249431396849,0.5,
    0.750568603151,1.),.UNSPECIFIED.);
#280 = CARTESIAN_POINT('',(2.204792817434,16.475274621357,0.));
#281 = CARTESIAN_POINT('',(2.006191678888,16.377701149231,0.));
#282 = CARTESIAN_POINT('',(1.800054342923,16.290063189878,0.));
#283 = CARTESIAN_POINT('',(1.587268715192,16.213385862208,0.));
#284 = CARTESIAN_POINT('',(1.368967631427,16.148538794628,0.));
#285 = CARTESIAN_POINT('',(0.922920523452,16.043465173233,0.));
#286 = CARTESIAN_POINT('',(0.695132991963,16.003351422363,0.));
#287 = CARTESIAN_POINT('',(0.464405390944,15.976391110162,0.));
#288 = CARTESIAN_POINT('',(0.232201842156,15.962911932035,0.));
#289 = CARTESIAN_POINT('',(-0.232201842156,15.962911932035,0.));
#290 = CARTESIAN_POINT('',(-0.464405390944,15.976391110163,0.));
#291 = CARTESIAN_POINT('',(-0.695132991962,16.003351422363,0.));
#292 = CARTESIAN_POINT('',(-0.922920523452,16.043465173234,0.));
#293 = CARTESIAN_POINT('',(-1.368967631427,16.148538794628,0.));
#294 = CARTESIAN_POINT('',(-1.587268715192,16.213385862208,0.));
#295 = CARTESIAN_POINT('',(-1.800054342923,16.290063189878,0.));
#296 = CARTESIAN_POINT('',(-2.006191678888,16.377701149231,0.));
#297 = CARTESIAN_POINT('',(-2.204792817434,16.475274621357,0.));
#298 = PCURVE('',#45,#299);
#299 = DEFINITIONAL_REPRESENTATION('',(#300),#319);
#300 = B_SPLINE_CURVE_WITH_KNOTS('',5,(#301,#302,#303,#304,#305,#306,
    #307,#308,#309,#310,#311,#312,#313,#314,#315,#316,#317,#318),
  .UNSPECIFIED.,.F.,.F.,(6,4,4,4,6),(0.,0.249431396849,0.5,
    0.750568603151,1.),.UNSPECIFIED.);
#301 = CARTESIAN_POINT('',(4.939985676501,8.975274621322));
#302 = CARTESIAN_POINT('',(5.138586815047,8.877701149196));
#303 = CARTESIAN_POINT('',(5.344724151011,8.790063189843));
#304 = CARTESIAN_POINT('',(5.557509778742,8.713385862173));
#305 = CARTESIAN_POINT('',(5.775810862508,8.648538794593));
#306 = CARTESIAN_POINT('',(6.221857970483,8.543465173198));
#307 = CARTESIAN_POINT('',(6.449645501972,8.503351422328));
#308 = CARTESIAN_POINT('',(6.680373102991,8.476391110127));
#309 = CARTESIAN_POINT('',(6.912576651778,8.462911932));
#310 = CARTESIAN_POINT('',(7.376980336091,8.462911932));
#311 = CARTESIAN_POINT('',(7.609183884879,8.476391110128));
#312 = CARTESIAN_POINT('',(7.839911485897,8.503351422328));
#313 = CARTESIAN_POINT('',(8.067699017387,8.543465173199));
#314 = CARTESIAN_POINT('',(8.513746125361,8.648538794593));
#315 = CARTESIAN_POINT('',(8.732047209127,8.713385862173));
#316 = CARTESIAN_POINT('',(8.944832836858,8.790063189843));
#317 = CARTESIAN_POINT('',(9.150970172822,8.877701149196));
#318 = CARTESIAN_POINT('',(9.349571311368,8.975274621322));
#319 = ( GEOMETRIC_REPRESENTATION_CONTEXT(2) 
PARAMETRIC_REPRESENTATION_CONTEXT() REPRESENTATION_CONTEXT('2D SPACE',''
  ) );
#320 = PCURVE('',#149,#321);
#321 = DEFINITIONAL_REPRESENTATION('',(#322),#341);
#322 = B_SPLINE_CURVE_WITH_KNOTS('',5,(#323,#324,#325,#326,#327,#328,
    #329,#330,#331,#332,#333,#334,#335,#336,#337,#338,#339,#340),
  .UNSPECIFIED.,.F.,.F.,(6,4,4,4,6),(0.,0.249431396849,0.5,
    0.750568603151,1.),.UNSPECIFIED.);
#323 = CARTESIAN_POINT('',(0.,-3.190481732973E-14));
#324 = CARTESIAN_POINT('',(0.501806409555,-3.214704599428E-14));
#325 = CARTESIAN_POINT('',(1.002566042973,-3.238297137501E-14));
#326 = CARTESIAN_POINT('',(1.502402871798,-3.255153798726E-14));
#327 = CARTESIAN_POINT('',(2.00149033017,-3.271926127667E-14));
#328 = CARTESIAN_POINT('',(3.000782472474,-3.297980234117E-14));
#329 = CARTESIAN_POINT('',(3.50098823178,-3.307847574841E-14));
#330 = CARTESIAN_POINT('',(4.00078844149,-3.314589702162E-14));
#331 = CARTESIAN_POINT('',(4.500395945635,-3.317823816652E-14));
#332 = CARTESIAN_POINT('',(5.499604054365,-3.317823816652E-14));
#333 = CARTESIAN_POINT('',(5.99921155851,-3.314366602403E-14));
#334 = CARTESIAN_POINT('',(6.49901176822,-3.307800648501E-14));
#335 = CARTESIAN_POINT('',(6.999217527526,-3.297719435402E-14));
#336 = CARTESIAN_POINT('',(7.99850966983,-3.271665328951E-14));
#337 = CARTESIAN_POINT('',(8.497597128202,-3.25552112641E-14));
#338 = CARTESIAN_POINT('',(8.997433957027,-3.23653772976E-14));
#339 = CARTESIAN_POINT('',(9.498193590445,-3.214791335601E-14));
#340 = CARTESIAN_POINT('',(10.,-3.190568469147E-14));
#341 = ( GEOMETRIC_REPRESENTATION_CONTEXT(2) 
PARAMETRIC_REPRESENTATION_CONTEXT() REPRESENTATION_CONTEXT('2D SPACE',''
  ) );
#342 = FACE_BOUND('',#343,.T.);
#343 = EDGE_LOOP('',(#344));
#344 = ORIENTED_EDGE('',*,*,#345,.T.);
#345 = EDGE_CURVE('',#346,#346,#348,.T.);
#346 = VERTEX_POINT('',#347);
#347 = CARTESIAN_POINT('',(-2.550051102597,11.501653524895,0.));
#348 = SURFACE_CURVE('',#349,(#354,#365),.PCURVE_S1.);
#349 = CIRCLE('',#350,5.703681945801);
#350 = AXIS2_PLACEMENT_3D('',#351,#352,#353);
#351 = CARTESIAN_POINT('',(-6.614378452301,7.5,0.));
#352 = DIRECTION('',(0.,0.,1.));
#353 = DIRECTION('',(0.712579591275,0.701591281372,-0.));
#354 = PCURVE('',#45,#355);
#355 = DEFINITIONAL_REPRESENTATION('',(#356),#364);
#356 = ( BOUNDED_CURVE() B_SPLINE_CURVE(2,(#357,#358,#359,#360,#361,#362
,#363),.UNSPECIFIED.,.T.,.F.) B_SPLINE_CURVE_WITH_KNOTS((1,2,2,2,2,1),(
    -2.094395102393,0.,2.094395102393,4.188790204786,6.28318530718,
8.377580409573),.UNSPECIFIED.) CURVE() GEOMETRIC_REPRESENTATION_ITEM() 
RATIONAL_B_SPLINE_CURVE((1.,0.5,1.,0.5,1.,0.5,1.)) REPRESENTATION_ITEM(
  '') );
#357 = CARTESIAN_POINT('',(9.694829596532,4.00165352486));
#358 = CARTESIAN_POINT('',(16.625896815937,11.041274993139));
#359 = CARTESIAN_POINT('',(19.25685423079,1.518983971657));
#360 = CARTESIAN_POINT('',(21.887811645643,-8.003307049825));
#361 = CARTESIAN_POINT('',(12.325787011385,-5.520637496622));
#362 = CARTESIAN_POINT('',(2.763762377127,-3.037967943418));
#363 = CARTESIAN_POINT('',(9.694829596532,4.00165352486));
#364 = ( GEOMETRIC_REPRESENTATION_CONTEXT(2) 
PARAMETRIC_REPRESENTATION_CONTEXT() REPRESENTATION_CONTEXT('2D SPACE',''
  ) );
#365 = PCURVE('',#366,#371);
#366 = CYLINDRICAL_SURFACE('',#367,5.703681945801);
#367 = AXIS2_PLACEMENT_3D('',#368,#369,#370);
#368 = CARTESIAN_POINT('',(-6.614378452301,7.5,0.));
#369 = DIRECTION('',(-0.,-0.,-1.));
#370 = DIRECTION('',(0.712579591275,0.701591281372,-0.));
#371 = DEFINITIONAL_REPRESENTATION('',(#372),#376);
#372 = LINE('',#373,#374);
#373 = CARTESIAN_POINT('',(-0.,0.));
#374 = VECTOR('',#375,1.);
#375 = DIRECTION('',(-1.,0.));
#376 = ( GEOMETRIC_REPRESENTATION_CONTEXT(2) 
PARAMETRIC_REPRESENTATION_CONTEXT() REPRESENTATION_CONTEXT('2D SPACE',''
  ) );
#377 = ADVANCED_FACE('',(#378),#78,.F.);
#378 = FACE_BOUND('',#379,.F.);
#379 = EDGE_LOOP('',(#380,#381,#405,#471));
#380 = ORIENTED_EDGE('',*,*,#176,.T.);
#381 = ORIENTED_EDGE('',*,*,#382,.T.);
#382 = EDGE_CURVE('',#177,#383,#385,.T.);
#383 = VERTEX_POINT('',#384);
#384 = CARTESIAN_POINT('',(-2.204792817434,-1.475274621357,10.));
#385 = SURFACE_CURVE('',#386,(#392,#399),.PCURVE_S1.);
#386 = B_SPLINE_CURVE_WITH_KNOTS('',2,(#387,#388,#389,#390,#391),
  .UNSPECIFIED.,.F.,.F.,(3,1,1,3),(-0.612,-3.12150479076E-14,10.,10.612)
  ,.UNSPECIFIED.);
#387 = CARTESIAN_POINT('',(-2.204792817434,-1.475274621357,-0.612));
#388 = CARTESIAN_POINT('',(-2.204792817434,-1.475274621357,-0.306));
#389 = CARTESIAN_POINT('',(-2.204792817434,-1.475274621357,5.));
#390 = CARTESIAN_POINT('',(-2.204792817434,-1.475274621357,10.306));
#391 = CARTESIAN_POINT('',(-2.204792817434,-1.475274621357,10.612));
#392 = PCURVE('',#78,#393);
#393 = DEFINITIONAL_REPRESENTATION('',(#394),#398);
#394 = LINE('',#395,#396);
#395 = CARTESIAN_POINT('',(10.,0.));
#396 = VECTOR('',#397,1.);
#397 = DIRECTION('',(0.,1.));
#398 = ( GEOMETRIC_REPRESENTATION_CONTEXT(2) 
PARAMETRIC_REPRESENTATION_CONTEXT() REPRESENTATION_CONTEXT('2D SPACE',''
  ) );
#399 = PCURVE('',#265,#400);
#400 = DEFINITIONAL_REPRESENTATION('',(#401),#404);
#401 = B_SPLINE_CURVE_WITH_KNOTS('',1,(#402,#403),.UNSPECIFIED.,.F.,.F.,
  (2,2),(-3.12150479076E-14,10.),.PIECEWISE_BEZIER_KNOTS.);
#402 = CARTESIAN_POINT('',(-5.169055378563,0.));
#403 = CARTESIAN_POINT('',(-5.169055378563,-10.));
#404 = ( GEOMETRIC_REPRESENTATION_CONTEXT(2) 
PARAMETRIC_REPRESENTATION_CONTEXT() REPRESENTATION_CONTEXT('2D SPACE',''
  ) );
#405 = ORIENTED_EDGE('',*,*,#406,.F.);
#406 = EDGE_CURVE('',#62,#383,#407,.T.);
#407 = SURFACE_CURVE('',#408,(#427,#449),.PCURVE_S1.);
#408 = B_SPLINE_CURVE_WITH_KNOTS('',5,(#409,#410,#411,#412,#413,#414,
    #415,#416,#417,#418,#419,#420,#421,#422,#423,#424,#425,#426),
  .UNSPECIFIED.,.F.,.F.,(6,4,4,4,6),(0.,0.249431396849,0.5,
    0.750568603151,1.),.UNSPECIFIED.);
#409 = CARTESIAN_POINT('',(2.204792817434,-1.475274621357,10.));
#410 = CARTESIAN_POINT('',(2.006191678888,-1.377701149231,10.));
#411 = CARTESIAN_POINT('',(1.800054342924,-1.290063189878,10.));
#412 = CARTESIAN_POINT('',(1.587268715192,-1.213385862208,10.));
#413 = CARTESIAN_POINT('',(1.368967631427,-1.148538794628,10.));
#414 = CARTESIAN_POINT('',(0.922920523452,-1.043465173233,10.));
#415 = CARTESIAN_POINT('',(0.695132991962,-1.003351422363,10.));
#416 = CARTESIAN_POINT('',(0.464405390944,-0.976391110163,10.));
#417 = CARTESIAN_POINT('',(0.232201842156,-0.962911932035,10.));
#418 = CARTESIAN_POINT('',(-0.232201842156,-0.962911932035,10.));
#419 = CARTESIAN_POINT('',(-0.464405390944,-0.976391110163,10.));
#420 = CARTESIAN_POINT('',(-0.695132991962,-1.003351422363,10.));
#421 = CARTESIAN_POINT('',(-0.922920523452,-1.043465173233,10.));
#422 = CARTESIAN_POINT('',(-1.368967631427,-1.148538794628,10.));
#423 = CARTESIAN_POINT('',(-1.587268715193,-1.213385862208,10.));
#424 = CARTESIAN_POINT('',(-1.800054342923,-1.290063189877,10.));
#425 = CARTESIAN_POINT('',(-2.006191678888,-1.377701149231,10.));
#426 = CARTESIAN_POINT('',(-2.204792817434,-1.475274621357,10.));
#427 = PCURVE('',#78,#428);
#428 = DEFINITIONAL_REPRESENTATION('',(#429),#448);
#429 = B_SPLINE_CURVE_WITH_KNOTS('',5,(#430,#431,#432,#433,#434,#435,
    #436,#437,#438,#439,#440,#441,#442,#443,#444,#445,#446,#447),
  .UNSPECIFIED.,.F.,.F.,(6,4,4,4,6),(0.,0.249431396849,0.5,
    0.750568603151,1.),.UNSPECIFIED.);
#430 = CARTESIAN_POINT('',(0.,10.));
#431 = CARTESIAN_POINT('',(0.501806409555,10.));
#432 = CARTESIAN_POINT('',(1.002566042973,10.));
#433 = CARTESIAN_POINT('',(1.502402871798,10.));
#434 = CARTESIAN_POINT('',(2.00149033017,10.));
#435 = CARTESIAN_POINT('',(3.000782472474,10.));
#436 = CARTESIAN_POINT('',(3.50098823178,10.));
#437 = CARTESIAN_POINT('',(4.00078844149,10.));
#438 = CARTESIAN_POINT('',(4.500395945635,10.));
#439 = CARTESIAN_POINT('',(5.499604054365,10.));
#440 = CARTESIAN_POINT('',(5.99921155851,10.));
#441 = CARTESIAN_POINT('',(6.49901176822,10.));
#442 = CARTESIAN_POINT('',(6.999217527526,10.));
#443 = CARTESIAN_POINT('',(7.99850966983,10.));
#444 = CARTESIAN_POINT('',(8.497597128203,10.));
#445 = CARTESIAN_POINT('',(8.997433957027,10.));
#446 = CARTESIAN_POINT('',(9.498193590446,10.));
#447 = CARTESIAN_POINT('',(10.,10.));
#448 = ( GEOMETRIC_REPRESENTATION_CONTEXT(2) 
PARAMETRIC_REPRESENTATION_CONTEXT() REPRESENTATION_CONTEXT('2D SPACE',''
  ) );
#449 = PCURVE('',#118,#450);
#450 = DEFINITIONAL_REPRESENTATION('',(#451),#470);
#451 = B_SPLINE_CURVE_WITH_KNOTS('',5,(#452,#453,#454,#455,#456,#457,
    #458,#459,#460,#461,#462,#463,#464,#465,#466,#467,#468,#469),
  .UNSPECIFIED.,.F.,.F.,(6,4,4,4,6),(0.,0.249431396849,0.5,
    0.750568603151,1.),.UNSPECIFIED.);
#452 = CARTESIAN_POINT('',(4.939985676501,-8.975274621392));
#453 = CARTESIAN_POINT('',(5.138586815047,-8.877701149266));
#454 = CARTESIAN_POINT('',(5.344724151011,-8.790063189913));
#455 = CARTESIAN_POINT('',(5.557509778742,-8.713385862243));
#456 = CARTESIAN_POINT('',(5.775810862508,-8.648538794663));
#457 = CARTESIAN_POINT('',(6.221857970483,-8.543465173268));
#458 = CARTESIAN_POINT('',(6.449645501972,-8.503351422398));
#459 = CARTESIAN_POINT('',(6.680373102991,-8.476391110197));
#460 = CARTESIAN_POINT('',(6.912576651778,-8.46291193207));
#461 = CARTESIAN_POINT('',(7.376980336091,-8.46291193207));
#462 = CARTESIAN_POINT('',(7.609183884879,-8.476391110198));
#463 = CARTESIAN_POINT('',(7.839911485897,-8.503351422398));
#464 = CARTESIAN_POINT('',(8.067699017387,-8.543465173268));
#465 = CARTESIAN_POINT('',(8.513746125361,-8.648538794663));
#466 = CARTESIAN_POINT('',(8.732047209127,-8.713385862243));
#467 = CARTESIAN_POINT('',(8.944832836858,-8.790063189912));
#468 = CARTESIAN_POINT('',(9.150970172823,-8.877701149266));
#469 = CARTESIAN_POINT('',(9.349571311368,-8.975274621392));
#470 = ( GEOMETRIC_REPRESENTATION_CONTEXT(2) 
PARAMETRIC_REPRESENTATION_CONTEXT() REPRESENTATION_CONTEXT('2D SPACE',''
  ) );
#471 = ORIENTED_EDGE('',*,*,#61,.F.);
#472 = ADVANCED_FACE('',(#473),#149,.T.);
#473 = FACE_BOUND('',#474,.T.);
#474 = EDGE_LOOP('',(#475,#476,#500,#566));
#475 = ORIENTED_EDGE('',*,*,#277,.T.);
#476 = ORIENTED_EDGE('',*,*,#477,.T.);
#477 = EDGE_CURVE('',#245,#478,#480,.T.);
#478 = VERTEX_POINT('',#479);
#479 = CARTESIAN_POINT('',(-2.204792817434,16.475274621357,10.));
#480 = SURFACE_CURVE('',#481,(#487,#494),.PCURVE_S1.);
#481 = B_SPLINE_CURVE_WITH_KNOTS('',2,(#482,#483,#484,#485,#486),
  .UNSPECIFIED.,.F.,.F.,(3,1,1,3),(-0.612,-3.183174210331E-14,10.,10.612
    ),.UNSPECIFIED.);
#482 = CARTESIAN_POINT('',(-2.204792817434,16.475274621357,-0.612));
#483 = CARTESIAN_POINT('',(-2.204792817434,16.475274621357,-0.306));
#484 = CARTESIAN_POINT('',(-2.204792817434,16.475274621357,5.));
#485 = CARTESIAN_POINT('',(-2.204792817434,16.475274621357,10.306));
#486 = CARTESIAN_POINT('',(-2.204792817434,16.475274621357,10.612));
#487 = PCURVE('',#149,#488);
#488 = DEFINITIONAL_REPRESENTATION('',(#489),#493);
#489 = LINE('',#490,#491);
#490 = CARTESIAN_POINT('',(10.,0.));
#491 = VECTOR('',#492,1.);
#492 = DIRECTION('',(0.,1.));
#493 = ( GEOMETRIC_REPRESENTATION_CONTEXT(2) 
PARAMETRIC_REPRESENTATION_CONTEXT() REPRESENTATION_CONTEXT('2D SPACE',''
  ) );
#494 = PCURVE('',#265,#495);
#495 = DEFINITIONAL_REPRESENTATION('',(#496),#499);
#496 = B_SPLINE_CURVE_WITH_KNOTS('',1,(#497,#498),.UNSPECIFIED.,.F.,.F.,
  (2,2),(-3.183174210331E-14,10.),.PIECEWISE_BEZIER_KNOTS.);
#497 = CARTESIAN_POINT('',(-1.114129928616,0.));
#498 = CARTESIAN_POINT('',(-1.114129928616,-10.));
#499 = ( GEOMETRIC_REPRESENTATION_CONTEXT(2) 
PARAMETRIC_REPRESENTATION_CONTEXT() REPRESENTATION_CONTEXT('2D SPACE',''
  ) );
#500 = ORIENTED_EDGE('',*,*,#501,.F.);
#501 = EDGE_CURVE('',#102,#478,#502,.T.);
#502 = SURFACE_CURVE('',#503,(#522,#544),.PCURVE_S1.);
#503 = B_SPLINE_CURVE_WITH_KNOTS('',5,(#504,#505,#506,#507,#508,#509,
    #510,#511,#512,#513,#514,#515,#516,#517,#518,#519,#520,#521),
  .UNSPECIFIED.,.F.,.F.,(6,4,4,4,6),(0.,0.249431396849,0.5,
    0.750568603151,1.),.UNSPECIFIED.);
#504 = CARTESIAN_POINT('',(2.204792817434,16.475274621357,10.));
#505 = CARTESIAN_POINT('',(2.006191678888,16.377701149231,10.));
#506 = CARTESIAN_POINT('',(1.800054342923,16.290063189878,10.));
#507 = CARTESIAN_POINT('',(1.587268715192,16.213385862208,10.));
#508 = CARTESIAN_POINT('',(1.368967631427,16.148538794628,10.));
#509 = CARTESIAN_POINT('',(0.922920523452,16.043465173233,10.));
#510 = CARTESIAN_POINT('',(0.695132991963,16.003351422363,10.));
#511 = CARTESIAN_POINT('',(0.464405390944,15.976391110162,10.));
#512 = CARTESIAN_POINT('',(0.232201842156,15.962911932035,10.));
#513 = CARTESIAN_POINT('',(-0.232201842156,15.962911932035,10.));
#514 = CARTESIAN_POINT('',(-0.464405390944,15.976391110163,10.));
#515 = CARTESIAN_POINT('',(-0.695132991962,16.003351422363,10.));
#516 = CARTESIAN_POINT('',(-0.922920523452,16.043465173234,10.));
#517 = CARTESIAN_POINT('',(-1.368967631427,16.148538794628,10.));
#518 = CARTESIAN_POINT('',(-1.587268715192,16.213385862208,10.));
#519 = CARTESIAN_POINT('',(-1.800054342923,16.290063189878,10.));
#520 = CARTESIAN_POINT('',(-2.006191678888,16.377701149231,10.));
#521 = CARTESIAN_POINT('',(-2.204792817434,16.475274621357,10.));
#522 = PCURVE('',#149,#523);
#523 = DEFINITIONAL_REPRESENTATION('',(#524),#543);
#524 = B_SPLINE_CURVE_WITH_KNOTS('',5,(#525,#526,#527,#528,#529,#530,
    #531,#532,#533,#534,#535,#536,#537,#538,#539,#540,#541,#542),
  .UNSPECIFIED.,.F.,.F.,(6,4,4,4,6),(0.,0.249431396849,0.5,
    0.750568603151,1.),.UNSPECIFIED.);
#525 = CARTESIAN_POINT('',(0.,10.));
#526 = CARTESIAN_POINT('',(0.501806409555,10.));
#527 = CARTESIAN_POINT('',(1.002566042973,10.));
#528 = CARTESIAN_POINT('',(1.502402871798,10.));
#529 = CARTESIAN_POINT('',(2.00149033017,10.));
#530 = CARTESIAN_POINT('',(3.000782472474,10.));
#531 = CARTESIAN_POINT('',(3.50098823178,10.));
#532 = CARTESIAN_POINT('',(4.000788441491,10.));
#533 = CARTESIAN_POINT('',(4.500395945635,10.));
#534 = CARTESIAN_POINT('',(5.499604054365,10.));
#535 = CARTESIAN_POINT('',(5.99921155851,10.));
#536 = CARTESIAN_POINT('',(6.49901176822,10.));
#537 = CARTESIAN_POINT('',(6.999217527526,10.));
#538 = CARTESIAN_POINT('',(7.99850966983,10.));
#539 = CARTESIAN_POINT('',(8.497597128202,10.));
#540 = CARTESIAN_POINT('',(8.997433957027,10.));
#541 = CARTESIAN_POINT('',(9.498193590445,10.));
#542 = CARTESIAN_POINT('',(10.,10.));
#543 = ( GEOMETRIC_REPRESENTATION_CONTEXT(2) 
PARAMETRIC_REPRESENTATION_CONTEXT() REPRESENTATION_CONTEXT('2D SPACE',''
  ) );
#544 = PCURVE('',#118,#545);
#545 = DEFINITIONAL_REPRESENTATION('',(#546),#565);
#546 = B_SPLINE_CURVE_WITH_KNOTS('',5,(#547,#548,#549,#550,#551,#552,
    #553,#554,#555,#556,#557,#558,#559,#560,#561,#562,#563,#564),
  .UNSPECIFIED.,.F.,.F.,(6,4,4,4,6),(0.,0.249431396849,0.5,
    0.750568603151,1.),.UNSPECIFIED.);
#547 = CARTESIAN_POINT('',(4.939985676501,8.975274621322));
#548 = CARTESIAN_POINT('',(5.138586815047,8.877701149196));
#549 = CARTESIAN_POINT('',(5.344724151011,8.790063189843));
#550 = CARTESIAN_POINT('',(5.557509778742,8.713385862173));
#551 = CARTESIAN_POINT('',(5.775810862508,8.648538794593));
#552 = CARTESIAN_POINT('',(6.221857970483,8.543465173198));
#553 = CARTESIAN_POINT('',(6.449645501972,8.503351422328));
#554 = CARTESIAN_POINT('',(6.680373102991,8.476391110127));
#555 = CARTESIAN_POINT('',(6.912576651778,8.462911932));
#556 = CARTESIAN_POINT('',(7.376980336091,8.462911932));
#557 = CARTESIAN_POINT('',(7.609183884879,8.476391110128));
#558 = CARTESIAN_POINT('',(7.839911485897,8.503351422328));
#559 = CARTESIAN_POINT('',(8.067699017387,8.543465173199));
#560 = CARTESIAN_POINT('',(8.513746125361,8.648538794593));
#561 = CARTESIAN_POINT('',(8.732047209127,8.713385862173));
#562 = CARTESIAN_POINT('',(8.944832836858,8.790063189843));
#563 = CARTESIAN_POINT('',(9.150970172822,8.877701149196));
#564 = CARTESIAN_POINT('',(9.349571311368,8.975274621322));
#565 = ( GEOMETRIC_REPRESENTATION_CONTEXT(2) 
PARAMETRIC_REPRESENTATION_CONTEXT() REPRESENTATION_CONTEXT('2D SPACE',''
  ) );
#566 = ORIENTED_EDGE('',*,*,#134,.F.);
#567 = ADVANCED_FACE('',(#568,#599),#118,.F.);
#568 = FACE_BOUND('',#569,.F.);
#569 = EDGE_LOOP('',(#570,#571,#572,#598));
#570 = ORIENTED_EDGE('',*,*,#101,.F.);
#571 = ORIENTED_EDGE('',*,*,#406,.T.);
#572 = ORIENTED_EDGE('',*,*,#573,.F.);
#573 = EDGE_CURVE('',#478,#383,#574,.T.);
#574 = SURFACE_CURVE('',#575,(#580,#591),.PCURVE_S1.);
#575 = CIRCLE('',#576,10.);
#576 = AXIS2_PLACEMENT_3D('',#577,#578,#579);
#577 = CARTESIAN_POINT('',(-6.614378452301,7.5,10.));
#578 = DIRECTION('',(0.,0.,1.));
#579 = DIRECTION('',(1.,0.,-0.));
#580 = PCURVE('',#118,#581);
#581 = DEFINITIONAL_REPRESENTATION('',(#582),#590);
#582 = ( BOUNDED_CURVE() B_SPLINE_CURVE(2,(#583,#584,#585,#586,#587,#588
,#589),.UNSPECIFIED.,.T.,.F.) B_SPLINE_CURVE_WITH_KNOTS((1,2,2,2,2,1),(
    -2.094395102393,0.,2.094395102393,4.188790204786,6.28318530718,
8.377580409573),.UNSPECIFIED.) CURVE() GEOMETRIC_REPRESENTATION_ITEM() 
RATIONAL_B_SPLINE_CURVE((1.,0.5,1.,0.5,1.,0.5,1.)) REPRESENTATION_ITEM(
  '') );
#583 = CARTESIAN_POINT('',(3.759156946236,-3.499422973618E-11));
#584 = CARTESIAN_POINT('',(3.759156946236,17.320508075654));
#585 = CARTESIAN_POINT('',(18.759156946236,8.660254037809));
#586 = CARTESIAN_POINT('',(33.759156946236,-3.499178044259E-11));
#587 = CARTESIAN_POINT('',(18.759156946236,-8.660254037879));
#588 = CARTESIAN_POINT('',(3.759156946236,-17.32050807572));
#589 = CARTESIAN_POINT('',(3.759156946236,-3.499422973618E-11));
#590 = ( GEOMETRIC_REPRESENTATION_CONTEXT(2) 
PARAMETRIC_REPRESENTATION_CONTEXT() REPRESENTATION_CONTEXT('2D SPACE',''
  ) );
#591 = PCURVE('',#265,#592);
#592 = DEFINITIONAL_REPRESENTATION('',(#593),#597);
#593 = LINE('',#594,#595);
#594 = CARTESIAN_POINT('',(-0.,-10.));
#595 = VECTOR('',#596,1.);
#596 = DIRECTION('',(-1.,0.));
#597 = ( GEOMETRIC_REPRESENTATION_CONTEXT(2) 
PARAMETRIC_REPRESENTATION_CONTEXT() REPRESENTATION_CONTEXT('2D SPACE',''
  ) );
#598 = ORIENTED_EDGE('',*,*,#501,.F.);
#599 = FACE_BOUND('',#600,.F.);
#600 = EDGE_LOOP('',(#601));
#601 = ORIENTED_EDGE('',*,*,#602,.T.);
#602 = EDGE_CURVE('',#603,#603,#605,.T.);
#603 = VERTEX_POINT('',#604);
#604 = CARTESIAN_POINT('',(-2.550051102597,11.501653524895,10.));
#605 = SURFACE_CURVE('',#606,(#611,#622),.PCURVE_S1.);
#606 = CIRCLE('',#607,5.703681945801);
#607 = AXIS2_PLACEMENT_3D('',#608,#609,#610);
#608 = CARTESIAN_POINT('',(-6.614378452301,7.5,10.));
#609 = DIRECTION('',(0.,0.,1.));
#610 = DIRECTION('',(0.712579591275,0.701591281372,-0.));
#611 = PCURVE('',#118,#612);
#612 = DEFINITIONAL_REPRESENTATION('',(#613),#621);
#613 = ( BOUNDED_CURVE() B_SPLINE_CURVE(2,(#614,#615,#616,#617,#618,#619
,#620),.UNSPECIFIED.,.T.,.F.) B_SPLINE_CURVE_WITH_KNOTS((1,2,2,2,2,1),(
    -2.094395102393,0.,2.094395102393,4.188790204786,6.28318530718,
8.377580409573),.UNSPECIFIED.) CURVE() GEOMETRIC_REPRESENTATION_ITEM() 
RATIONAL_B_SPLINE_CURVE((1.,0.5,1.,0.5,1.,0.5,1.)) REPRESENTATION_ITEM(
  '') );
#614 = CARTESIAN_POINT('',(9.694829596532,4.00165352486));
#615 = CARTESIAN_POINT('',(16.625896815937,11.041274993139));
#616 = CARTESIAN_POINT('',(19.25685423079,1.518983971657));
#617 = CARTESIAN_POINT('',(21.887811645643,-8.003307049825));
#618 = CARTESIAN_POINT('',(12.325787011385,-5.520637496622));
#619 = CARTESIAN_POINT('',(2.763762377127,-3.037967943418));
#620 = CARTESIAN_POINT('',(9.694829596532,4.00165352486));
#621 = ( GEOMETRIC_REPRESENTATION_CONTEXT(2) 
PARAMETRIC_REPRESENTATION_CONTEXT() REPRESENTATION_CONTEXT('2D SPACE',''
  ) );
#622 = PCURVE('',#366,#623);
#623 = DEFINITIONAL_REPRESENTATION('',(#624),#628);
#624 = LINE('',#625,#626);
#625 = CARTESIAN_POINT('',(-0.,-10.));
#626 = VECTOR('',#627,1.);
#627 = DIRECTION('',(-1.,0.));
#628 = ( GEOMETRIC_REPRESENTATION_CONTEXT(2) 
PARAMETRIC_REPRESENTATION_CONTEXT() REPRESENTATION_CONTEXT('2D SPACE',''
  ) );
#629 = ADVANCED_FACE('',(#630),#265,.T.);
#630 = FACE_BOUND('',#631,.F.);
#631 = EDGE_LOOP('',(#632,#633,#634,#635));
#632 = ORIENTED_EDGE('',*,*,#244,.F.);
#633 = ORIENTED_EDGE('',*,*,#477,.T.);
#634 = ORIENTED_EDGE('',*,*,#573,.T.);
#635 = ORIENTED_EDGE('',*,*,#382,.F.);
#636 = ADVANCED_FACE('',(#637),#366,.F.);
#637 = FACE_BOUND('',#638,.T.);
#638 = EDGE_LOOP('',(#639,#660,#661,#662));
#639 = ORIENTED_EDGE('',*,*,#640,.T.);
#640 = EDGE_CURVE('',#346,#603,#641,.T.);
#641 = SEAM_CURVE('',#642,(#646,#653),.PCURVE_S1.);
#642 = LINE('',#643,#644);
#643 = CARTESIAN_POINT('',(-2.550051102597,11.501653524895,0.));
#644 = VECTOR('',#645,1.);
#645 = DIRECTION('',(0.,0.,1.));
#646 = PCURVE('',#366,#647);
#647 = DEFINITIONAL_REPRESENTATION('',(#648),#652);
#648 = LINE('',#649,#650);
#649 = CARTESIAN_POINT('',(-0.,0.));
#650 = VECTOR('',#651,1.);
#651 = DIRECTION('',(-0.,-1.));
#652 = ( GEOMETRIC_REPRESENTATION_CONTEXT(2) 
PARAMETRIC_REPRESENTATION_CONTEXT() REPRESENTATION_CONTEXT('2D SPACE',''
  ) );
#653 = PCURVE('',#366,#654);
#654 = DEFINITIONAL_REPRESENTATION('',(#655),#659);
#655 = LINE('',#656,#657);
#656 = CARTESIAN_POINT('',(-6.28318530718,0.));
#657 = VECTOR('',#658,1.);
#658 = DIRECTION('',(-0.,-1.));
#659 = ( GEOMETRIC_REPRESENTATION_CONTEXT(2) 
PARAMETRIC_REPRESENTATION_CONTEXT() REPRESENTATION_CONTEXT('2D SPACE',''
  ) );
#660 = ORIENTED_EDGE('',*,*,#602,.T.);
#661 = ORIENTED_EDGE('',*,*,#640,.F.);
#662 = ORIENTED_EDGE('',*,*,#345,.F.);
#663 = ( GEOMETRIC_REPRESENTATION_CONTEXT(3) 
GLOBAL_UNCERTAINTY_ASSIGNED_CONTEXT((#667)) GLOBAL_UNIT_ASSIGNED_CONTEXT
((#664,#665,#666)) REPRESENTATION_CONTEXT('Context #1',
  '3D Context with UNIT and UNCERTAINTY') );
#664 = ( LENGTH_UNIT() NAMED_UNIT(*) SI_UNIT(.MILLI.,.METRE.) );
#665 = ( NAMED_UNIT(*) PLANE_ANGLE_UNIT() SI_UNIT($,.RADIAN.) );
#666 = ( NAMED_UNIT(*) SI_UNIT($,.STERADIAN.) SOLID_ANGLE_UNIT() );
#667 = UNCERTAINTY_MEASURE_WITH_UNIT(LENGTH_MEASURE(1.E-07),#664,
  'distance_accuracy_value','confusion accuracy');
#668 = PRODUCT_RELATED_PRODUCT_CATEGORY('part',$,(#7));
ENDSEC;
END-ISO-10303-21;
